# xmcd CD database file
#
# Track frame offsets:
#	150
#	19235
#	42590
#	60912
#
# Disc length: 1064 seconds
#
# Revision: 3
# Processed by: cddbd v1.5.1PL0 Copyright (c) Steve Scherf et al.
# Submitted via: CDex 1.51
#
DISCID=2c042604
DTITLE=米倉千尋 - 永遠の花
DYEAR=2005
DGENRE=JPop
TTITLE0=永遠の花
TTITLE1=Cross
TTITLE2=DISTANCE
TTITLE3=永遠の花(instrumental)
EXTD=YEAR: 2005
EXTT0=
EXTT1=
EXTT2=
EXTT3=
PLAYORDER=
